<?xml version="1.0" encoding="UTF-8"?>
<svg width="320" height="320" version="1.1" viewBox="0 0 320 320" xmlns="http://www.w3.org/2000/svg">
 <path d="m261.69 317.07v-108.26c0-22.627-9.3333-33.943-28-33.95-18.667-7e-3 -28.02 11.31-28.06 33.95v108.26h-55.15v-108.26c0-22.627-9.19-33.943-27.57-33.95-18.7 0-28.033 11.317-28 33.95v108.26h-55.16v-114.65c0-23.62-3.8912-29.002 17.748-28.642 34.089-1.1262 42.618-5.7794 67.427-14.235 23.607-8.0457 41.298-20.607 53.105-7.8136 10.173-12.793 28.713-19.19 55.62-19.19 24.6 0 44.113 5.4167 58.54 16.25 16.4 12.127 24.603 30.003 24.61 53.63v114.65z" fill="#5bcffb"/>
 <g transform="translate(2)">
  <path class="UnoptimicedTransforms" d="m59.483 191.71c-12.709 0.14015-22.701-0.20554-32.523-2.5319a32.644 32.644 0 0 1-7.8504-2.8776c-9.2214-4.8863-11.172-15.696-4.1623-23.469 4.1132-4.564 9.3639-7.5678 14.785-10.277 1.8336-0.92962 3.7021-1.8639 5.6618-2.4478 1.8686-0.56991 1.9667-1.5159 1.635-3.2093-2.4128-12.323-6.6755-24.072-11.127-35.753-6.6265-17.385-13.781-34.552-21.33-51.559a71.24 71.24 0 0 1-4.4636-14.049c-0.40408-1.8803 0.37138-3.4732 1.3641-4.9611 2.0251-3.0364 4.6528-5.4983 7.5467-7.6939 13.342-10.111 28.454-16.495 44.444-20.968 15.033-4.2043 30.29-7.4066 45.78-9.2541a88.907 88.907 0 0 1 34.375 2.5156c6.0729 1.67 9.065 5.1643 9.5414 11.475 0.70072 9.1771 1.3197 18.359 2.2189 27.522q1.7074 17.354 4.2043 34.611c1.3711 9.462 2.8519 18.919 4.6948 28.29 0.73341 3.7372 1.9013 7.3972 2.8262 11.102 0.2616 1.0487 0.86889 1.1538 1.7938 1.0207a77.17 77.17 0 0 1 19.826-0.35737 19.674 19.674 0 0 1 8.105 2.6651c5.0171 3.0364 6.8577 8.5277 5.2951 15.334-0.88758 3.8633-2.95 6.9605-5.6782 9.782-9.2495 9.5765-20.304 16.507-32.21 22.166-20.183 9.5975-41.459 15.687-63.429 19.51-11.249 1.9457-22.57 3.1602-31.324 3.4148zm93.822-80.312a16.855 16.855 0 0 1-4.1086 4.5874 111.36 111.36 0 0 1-21.178 13.054c-22.395 10.525-46.051 14.827-70.674 14.617-6.8086-0.0584-13.479-0.52788-19.854-3.8049 0.0958 0.68904 0.12846 1.1912 0.23357 1.677 1.3828 6.164 2.8543 12.309 4.1132 18.497 0.34802 1.7144 1.1468 2.5553 2.7211 2.9804 4.578 1.2356 9.2635 1.635 13.97 1.7985 12.94 0.46714 25.719-0.96232 38.381-3.5246 18.139-3.6694 35.463-9.5625 51.4-19.153a31.607 31.607 0 0 0 8.7473-7.6845c1.252-1.6046 1.9153-3.1789 1.1095-5.2484-0.60963-1.5649-0.90393-3.2513-1.3454-4.8817-1.1305-4.1436-2.2586-8.2942-3.5153-12.914zm-55.625-81.769c-0.54656 0.16817-1.0978 0.32466-1.635 0.51152-12.23 4.216-24.588 7.9882-37.138 11.09-11.289 2.7888-22.657 5.1082-34.3 5.8043-6.5073 0.39007-12.949 0.0444-19.272-2.887a7.0866 7.0866 0 0 0 3.1696 2.8356c3.2326 1.5906 6.6872 2.2096 10.235 2.3941 7.6238 0.39941 15.119-0.74276 22.608-1.941 13.916-2.2283 27.246-6.6218 40.541-11.104 5.4166-1.8149 10.765-3.868 15.792-6.7035z" stroke="#fff"/>
  <path d="m97.682 29.637c-0.54656 0.16817-1.0978 0.32466-1.635 0.51152-12.23 4.216-24.588 7.9882-37.138 11.09-11.289 2.7888-22.657 5.1082-34.3 5.8043-6.5073 0.39007-12.949 0.0444-19.272-2.887a7.0866 7.0866 0 0 0 3.1696 2.8356c3.2326 1.5906 6.6872 2.2096 10.235 2.3941 7.6238 0.39941 15.119-0.74276 22.608-1.941 13.916-2.2283 27.246-6.6218 40.541-11.104 5.4166-1.8149 10.765-3.868 15.792-6.7035z" fill="#fff" stroke-width=".23357"/>
  <path d="m153.31 111.41a16.855 16.855 0 0 1-4.1086 4.5874 111.36 111.36 0 0 1-21.178 13.054c-22.395 10.525-46.051 14.827-70.674 14.617-6.8086-0.0584-13.479-0.52788-19.854-3.8049 0.0958 0.68904 0.12846 1.1912 0.23357 1.677 1.3828 6.164 2.8543 12.309 4.1132 18.497 0.34802 1.7144 1.1468 2.5553 2.7211 2.9804 4.578 1.2356 9.2635 1.635 13.97 1.7985 12.94 0.46714 25.719-0.96232 38.381-3.5246 18.139-3.6694 35.463-9.5625 51.4-19.153a31.607 31.607 0 0 0 8.7473-7.6845c1.252-1.6046 1.9153-3.1789 1.1095-5.2484-0.60963-1.5649-0.90393-3.2513-1.3454-4.8817-1.1305-4.1436-2.2586-8.2942-3.5153-12.914z" fill="#fff" stroke-width=".23357"/>
 </g>
 <g transform="translate(194.93 8.267)">
  <path d="m121.59 60.83-13.93-4.49c-8.91-2.94-14.13-10.15-16.58-19.21l-6.13-29.86c-0.16-0.59-0.55-1.38-1.75-1.38-1.01 0-1.59 0.79-1.75 1.38l-6.13 29.87c-2.46 9.06-7.67 16.27-16.58 19.21l-13.93 4.49c-1.97 0.64-2 3.42-0.04 4.09l14.03 4.83c8.88 2.95 14.06 10.15 16.52 19.17l6.14 29.53c0.16 0.59 0.49 1.65 1.75 1.65 1.33 0 1.59-1.06 1.75-1.65l6.14-29.53c2.46-9.03 7.64-16.23 16.52-19.17l14.03-4.83c1.94-0.68 1.91-3.46-0.06-4.1z" fill="#fde268"/>
  <path d="m122.91 62.08c-0.22-0.55-0.65-1.03-1.32-1.25l-13.93-4.49c-8.91-2.94-14.13-10.15-16.58-19.21l-6.13-29.86c-0.09-0.34-0.41-0.96-0.78-1.14l1.98 29.97c1.47 13.68 2.73 20.12 13.65 22 9.38 1.62 20.23 3.48 23.11 3.98z" fill="#fff38a"/>
  <path d="m122.94 63.64-24.16 5.54c-8.51 2.16-13.2 7.09-13.2 19.99l-2.37 30.94c0.81-0.08 1.47-0.52 1.75-1.65l6.14-29.53c2.46-9.03 7.64-16.23 16.52-19.17l14.03-4.83c0.66-0.24 1.08-0.73 1.29-1.29z" fill="#ffc729"/>
  <path d="m41.81 86.81c-8.33-2.75-9.09-5.85-10.49-11.08l-3.49-12.24c-0.21-0.79-2.27-0.79-2.49 0l-2.37 11.31c-1.41 5.21-4.41 9.35-9.53 11.04l-8.16 3.54c-1.13 0.37-1.15 1.97-0.02 2.35l8.22 2.91c5.1 1.69 8.08 5.83 9.5 11.02l2.37 10.82c0.22 0.79 2.27 0.79 2.48 0l2.78-10.77c1.41-5.22 3.57-9.37 10.5-11.07l7.72-2.91c1.13-0.39 1.12-1.99-0.02-2.36z" fill="#f5abb9"/>
  <path d="m28.49 75.55c0.85 7.86 1.28 10.04 7.65 11.67l13.27 2.59c-0.14-0.19-0.34-0.35-0.61-0.43l-7-2.57c-7.31-2.5-9.33-5.68-10.7-12.04s-2.83-10.51-2.83-10.51c-0.51-1.37-1.24-1.3-1.24-1.3z" fill="#fbdae1"/>
  <path d="m28.73 102.99c0-7.41 4.05-11.08 10.49-11.08l10.02-0.41s-0.58 0.77-1.59 1.01l-6.54 2.13c-5.55 2.23-8.08 3.35-9.8 10.94 0 0-2.22 8.83-2.64 9.76-0.58 1.3-1.27 1.57-1.27 1.57z" fill="#f07f95"/>
  <path d="m59.74 28.14c0.56-0.19 0.54-0.99-0.03-1.15l-7.72-2.08c-1.62-0.44-2.88-1.69-3.34-3.3l-3.04-12.55c-0.15-0.61-1.02-0.61-1.17 0.01l-2.86 12.5c-0.44 1.66-1.74 2.94-3.4 3.37l-7.67 1.99c-0.57 0.15-0.61 0.95-0.05 1.15l8.09 2.8c1.45 0.5 2.57 1.68 3.01 3.15l2.89 11.59c0.15 0.6 1.01 0.61 1.16 0l2.99-11.63c0.45-1.47 1.58-2.64 3.04-3.13z" fill="#5bcffb" stroke="#5bcffb" stroke-miterlimit="10"/>
 </g>
</svg>
